<svg id="Expanded" xmlns="http://www.w3.org/2000/svg" viewBox="0 0 96 96"><path d="M73.32,55.29H21.74a16,16,0,0,1-2.41-31.75c0-.38,0-.75,0-1.12A20.43,20.43,0,0,1,55.83,9.85,17,17,0,0,1,61.05,9C68.65,9,76,15.5,76.62,22.57c8.29,1.73,13.6,7.86,13.6,15.81A16.93,16.93,0,0,1,73.32,55.29ZM39.73,4A18.41,18.41,0,0,0,21.4,24.33a1,1,0,0,1-.23.73,1,1,0,0,1-.68.36,14,14,0,0,0,1.25,27.87H73.32a14.93,14.93,0,0,0,14.9-14.91c0-7.17-5-12.67-12.73-14a1,1,0,0,1-.83-1C74.56,17.69,68.59,11,61.05,11a14.77,14.77,0,0,0-5.23,1,1,1,0,0,1-1.16-.35A18.45,18.45,0,0,0,39.73,4Z"/><path d="M26.6,23.42a1,1,0,0,1-1-1A14.14,14.14,0,0,1,39.73,8.3a1,1,0,0,1,0,2A12.15,12.15,0,0,0,27.6,22.42,1,1,0,0,1,26.6,23.42Z"/><path d="M32.13,72.75H17.68a1,1,0,0,1,0-2H31.13V54.29a1,1,0,0,1,2,0V71.75A1,1,0,0,1,32.13,72.75Z"/><path d="M43.11,85.64a1,1,0,0,1-1-1V54.29a1,1,0,0,1,2,0V84.64A1,1,0,0,1,43.11,85.64Z"/><path d="M67,80.87H55.64a1,1,0,0,1-1-1V54.29a1,1,0,0,1,2,0V78.87H67a1,1,0,1,1,0,2Z"/><path d="M78.32,70.46H67.46a1,1,0,0,1-1-1V54.29a1,1,0,0,1,2,0V68.46h9.86a1,1,0,0,1,0,2Z"/><path d="M13.5,76.93a5.18,5.18,0,1,1,5.18-5.18A5.18,5.18,0,0,1,13.5,76.93Zm0-8.36a3.18,3.18,0,1,0,3.18,3.18A3.19,3.19,0,0,0,13.5,68.57Z"/><path d="M43.11,94a5.18,5.18,0,1,1,5.17-5.18A5.18,5.18,0,0,1,43.11,94Zm0-8.36a3.18,3.18,0,1,0,3.17,3.18A3.18,3.18,0,0,0,43.11,85.64Z"/><path d="M71.16,85.05a5.18,5.18,0,1,1,5.18-5.18A5.19,5.19,0,0,1,71.16,85.05Zm0-8.36a3.18,3.18,0,1,0,3.18,3.18A3.19,3.19,0,0,0,71.16,76.69Z"/><path d="M82.5,74.64a5.18,5.18,0,1,1,5.18-5.18A5.18,5.18,0,0,1,82.5,74.64Zm0-8.35a3.18,3.18,0,1,0,3.18,3.17A3.18,3.18,0,0,0,82.5,66.29Z"/></svg>