<svg id="Layer_1" data-name="Layer 1" xmlns="http://www.w3.org/2000/svg" viewBox="0 0 94 94"><path d="M47,73.24a.58.58,0,0,1-.26,0c-26.79-10-21.34-43-21.28-43.35a.75.75,0,0,1,.71-.62C36.7,28.86,46.43,21,46.53,20.93a.73.73,0,0,1,.94,0c.1.07,9.34,7.49,20.38,8.29a.75.75,0,0,1,.69.62c.06.33,5.51,33.33-21.28,43.35A.58.58,0,0,1,47,73.24ZM26.85,30.69c-.58,4.4-3.24,32,20.15,41,23.43-9,20.72-36.69,20.14-41C57.21,29.74,49,24,47,22.46,44.92,24.06,36.41,30.12,26.85,30.69Z"/><path d="M47,68.93a.8.8,0,0,1-.3-.06c-17.84-7.68-18.29-27.24-17.65-35.3a.75.75,0,0,1,.63-.68C37,31.75,43.41,28,46.6,25.82a.74.74,0,0,1,.83,0,46,46,0,0,0,16.9,7,.76.76,0,0,1,.62.68c.65,8.07.24,27.68-17.65,35.38A.8.8,0,0,1,47,68.93ZM30.5,34.28c-.54,8,.25,25.88,16.5,33.08,16.3-7.22,17-25.15,16.49-33.18A47.69,47.69,0,0,1,47,27.34,45.71,45.71,0,0,1,30.5,34.28Z"/><path d="M49.52,55.6h-5a.77.77,0,0,1-.75-.85l1-8a4.49,4.49,0,1,1,4.5,0l1,8a.77.77,0,0,1-.75.85Zm-4.19-1.5h3.34l-1-7.67a.73.73,0,0,1,.45-.78,3,3,0,1,0-2.3,0,.73.73,0,0,1,.45.78Z"/><path d="M81.8,39.62H68.29a.75.75,0,0,1,0-1.5H81.05v-7a.75.75,0,1,1,1.5,0v7.71A.75.75,0,0,1,81.8,39.62Z"/><path d="M86.83,46.88H67.59a.75.75,0,0,1,0-1.5H86.83a.75.75,0,0,1,0,1.5Z"/><path d="M79,64.68a.76.76,0,0,1-.75-.75V53.7H65.88a.75.75,0,0,1,0-1.5H79a.75.75,0,0,1,.75.75v11A.76.76,0,0,1,79,64.68Z"/><path d="M81.8,31.91a3.33,3.33,0,1,1,3.34-3.33A3.34,3.34,0,0,1,81.8,31.91Zm0-5.16a1.83,1.83,0,1,0,1.84,1.83A1.83,1.83,0,0,0,81.8,26.75Z"/><path d="M89.42,49.47a3.34,3.34,0,1,1,3.33-3.34A3.35,3.35,0,0,1,89.42,49.47Zm0-5.17a1.84,1.84,0,1,0,1.83,1.83A1.84,1.84,0,0,0,89.42,44.3Z"/><path d="M78.92,69.84a3.33,3.33,0,1,1,3.33-3.33A3.34,3.34,0,0,1,78.92,69.84Zm0-5.16a1.83,1.83,0,1,0,1.83,1.83A1.83,1.83,0,0,0,78.92,64.68Z"/><path d="M25.71,39.62H12.2a.75.75,0,0,1-.75-.75V31.16a.75.75,0,0,1,1.5,0v7H25.71a.75.75,0,0,1,0,1.5Z"/><path d="M26.41,46.88H7.17a.75.75,0,0,1,0-1.5H26.41a.75.75,0,1,1,0,1.5Z"/><path d="M15.05,64.68a.76.76,0,0,1-.75-.75V53a.75.75,0,0,1,.75-.75H28.13a.75.75,0,0,1,0,1.5H15.8V63.93A.76.76,0,0,1,15.05,64.68Z"/><path d="M12.2,31.91a3.33,3.33,0,1,1,3.33-3.33A3.34,3.34,0,0,1,12.2,31.91Zm0-5.16A1.83,1.83,0,1,0,14,28.58,1.84,1.84,0,0,0,12.2,26.75Z"/><path d="M4.58,49.47a3.34,3.34,0,1,1,3.34-3.34A3.34,3.34,0,0,1,4.58,49.47Zm0-5.17a1.84,1.84,0,1,0,1.84,1.83A1.83,1.83,0,0,0,4.58,44.3Z"/><path d="M15.08,69.84a3.33,3.33,0,1,1,3.34-3.33A3.34,3.34,0,0,1,15.08,69.84Zm0-5.16a1.83,1.83,0,1,0,1.84,1.83A1.83,1.83,0,0,0,15.08,64.68Z"/></svg>